<svg viewBox="0 0 512 512">
  <g transform="matrix(2.047812, 0, 0, 2.047812, -34.9561, 93.544243)">
    <path id="gsl6" fill="#FFFFFF" d="M267.093,140.862c0,23.125-6.32,44.797-17.312,63.398h-2.743   c11.225-18.513,17.692-40.214,17.692-63.398c0-67.633-55.022-122.651-122.647-122.651c-67.633,0-122.655,55.018-122.655,122.651   c0,23.184,6.468,44.885,17.692,63.398h-2.739c-10.992-18.601-17.311-40.273-17.311-63.398c0-68.934,56.079-125.013,125.013-125.013   C211.01,15.849,267.093,71.928,267.093,140.862z M142.084,37.667c-56.903,0-103.195,46.292-103.195,103.195   c0,23.881,8.158,45.892,21.829,63.398h7.622c-14.67-17.041-23.551-39.201-23.551-63.398c0-53.652,43.644-97.3,97.296-97.3   c53.648,0,97.292,43.648,97.292,97.3c0,24.197-8.881,46.357-23.551,63.398h7.62c13.672-17.506,21.829-39.517,21.829-63.398   C245.275,83.959,198.983,37.667,142.084,37.667z"/>
    <path id="gsl3" fill="#FFFFFF" d="M142.084,59.485c-44.872,0-81.377,36.505-81.377,81.377c0,25.604,11.898,48.47,30.444,63.398   h16.974c-22.588-12.146-37.981-36.007-37.981-63.402c0-39.667,32.274-71.937,71.941-71.937s71.937,32.271,71.937,71.937   c0,27.395-15.394,51.255-37.98,63.402h16.972c18.544-14.928,30.44-37.794,30.44-63.398   C223.453,95.99,186.957,59.485,142.084,59.485z"/>
    <path id="gss" fill="#FFFFFF" d="M195.152,140.862c0-29.313-23.764-53.072-53.072-53.072c-29.309,0-53.068,23.76-53.068,53.072   c0,29.308,23.76,53.069,53.068,53.069C171.388,193.931,195.152,170.17,195.152,140.862z"/>
  </g>
</svg>