<?xml version="1.0" encoding="utf-8"?>
<svg viewBox="0 0 214 24" width="214px" height="24px" xmlns="http://www.w3.org/2000/svg">
  <path d="M 0 0.255 L 18.646 0.255 L 18.646 4.566 L 12.042 4.566 L 12.042 23.714 L 6.601 23.714 L 6.601 4.566 L 0 4.566 L 0 0.255 Z M 31.078 0.255 L 40.154 23.714 L 35.945 23.714 C 35.469 23.714 35.078 23.606 34.77 23.382 C 34.463 23.167 34.253 22.889 34.139 22.543 L 32.746 18.449 L 23.833 18.449 L 22.44 22.543 C 22.334 22.843 22.128 23.11 21.82 23.347 C 21.505 23.593 21.12 23.714 20.669 23.714 L 16.426 23.714 L 25.501 0.255 L 31.078 0.255 Z M 27.249 8.351 L 25.087 14.746 L 31.492 14.746 L 29.343 8.328 C 29.196 7.913 29.031 7.429 28.846 6.879 C 28.656 6.326 28.47 5.729 28.296 5.084 C 28.12 5.743 27.938 6.349 27.753 6.901 C 27.578 7.46 27.409 7.946 27.249 8.351 Z M 56.857 17.644 C 56.981 17.644 57.107 17.669 57.237 17.723 C 57.369 17.769 57.491 17.85 57.606 17.967 L 59.768 20.242 C 58.825 21.477 57.64 22.409 56.214 23.038 C 54.795 23.658 53.114 23.969 51.164 23.969 C 49.386 23.969 47.792 23.666 46.381 23.062 C 44.971 22.455 43.774 21.62 42.792 20.553 C 41.812 19.487 41.054 18.222 40.525 16.758 C 39.998 15.286 39.732 13.691 39.732 11.975 C 39.732 10.225 40.035 8.617 40.642 7.155 C 41.24 5.689 42.077 4.424 43.159 3.357 C 44.242 2.301 45.534 1.476 47.036 0.886 C 48.538 0.298 50.194 0 52.004 0 C 52.888 0 53.718 0.077 54.5 0.23 C 55.276 0.382 55.999 0.598 56.673 0.874 C 57.35 1.149 57.975 1.481 58.548 1.863 C 59.118 2.239 59.617 2.658 60.056 3.116 L 58.226 5.589 C 58.105 5.736 57.962 5.87 57.8 5.992 C 57.64 6.115 57.415 6.176 57.123 6.176 C 56.932 6.176 56.752 6.134 56.583 6.049 C 56.405 5.964 56.222 5.864 56.029 5.739 C 55.84 5.616 55.627 5.483 55.396 5.337 C 55.167 5.19 54.896 5.058 54.579 4.933 C 54.258 4.811 53.886 4.708 53.465 4.623 C 53.043 4.533 52.545 4.486 51.969 4.486 C 50.988 4.486 50.089 4.662 49.268 5.016 C 48.457 5.359 47.754 5.859 47.164 6.511 C 46.58 7.161 46.126 7.949 45.804 8.868 C 45.477 9.796 45.311 10.829 45.311 11.975 C 45.311 13.177 45.477 14.246 45.804 15.183 C 46.126 16.118 46.571 16.904 47.138 17.541 C 47.7 18.176 48.355 18.664 49.106 19.001 C 49.858 19.33 50.664 19.494 51.522 19.494 C 52.02 19.494 52.473 19.472 52.879 19.427 C 53.286 19.38 53.666 19.297 54.018 19.172 C 54.362 19.059 54.691 18.905 55.005 18.714 C 55.328 18.528 55.65 18.295 55.972 18.013 C 56.096 17.904 56.234 17.816 56.386 17.747 C 56.542 17.676 56.697 17.644 56.857 17.644 Z M 60.637 0.255 L 79.28 0.255 L 79.28 4.566 L 72.678 4.566 L 72.678 23.714 L 67.24 23.714 L 67.24 4.566 L 60.637 4.566 L 60.637 0.255 Z M 87.494 0.255 L 87.494 23.714 L 82.019 23.714 L 82.019 0.255 L 87.494 0.255 Z M 107.608 17.644 C 107.733 17.644 107.858 17.669 107.988 17.723 C 108.119 17.769 108.241 17.85 108.357 17.967 L 110.519 20.242 C 109.575 21.477 108.39 22.409 106.965 23.038 C 105.548 23.658 103.863 23.969 101.916 23.969 C 100.137 23.969 98.542 23.666 97.131 23.062 C 95.72 22.455 94.523 21.62 93.542 20.553 C 92.561 19.487 91.806 18.222 91.277 16.758 C 90.746 15.286 90.482 13.691 90.482 11.975 C 90.482 10.225 90.785 8.617 91.392 7.155 C 91.99 5.689 92.829 4.424 93.909 3.357 C 94.992 2.301 96.284 1.476 97.787 0.886 C 99.291 0.298 100.947 0 102.757 0 C 103.637 0 104.47 0.077 105.25 0.23 C 106.026 0.382 106.749 0.598 107.425 0.874 C 108.1 1.149 108.725 1.481 109.3 1.863 C 109.867 2.239 110.37 2.658 110.807 3.116 L 108.978 5.589 C 108.854 5.736 108.713 5.87 108.552 5.992 C 108.39 6.115 108.166 6.176 107.873 6.176 C 107.682 6.176 107.502 6.134 107.332 6.049 C 107.158 5.964 106.972 5.864 106.782 5.739 C 106.589 5.616 106.378 5.483 106.148 5.337 C 105.92 5.19 105.645 5.058 105.333 4.933 C 105.008 4.811 104.639 4.708 104.216 4.623 C 103.793 4.533 103.295 4.486 102.721 4.486 C 101.741 4.486 100.839 4.662 100.019 5.016 C 99.204 5.359 98.503 5.859 97.914 6.511 C 97.329 7.161 96.877 7.949 96.556 8.868 C 96.226 9.796 96.062 10.829 96.062 11.975 C 96.062 13.177 96.226 14.246 96.556 15.183 C 96.877 16.118 97.322 16.904 97.891 17.541 C 98.449 18.176 99.106 18.664 99.856 19.001 C 100.608 19.33 101.412 19.494 102.273 19.494 C 102.77 19.494 103.223 19.472 103.629 19.427 C 104.035 19.38 104.415 19.297 104.767 19.172 C 105.114 19.059 105.442 18.905 105.758 18.714 C 106.078 18.528 106.402 18.295 106.724 18.013 C 106.845 17.904 106.985 17.816 107.138 17.747 C 107.29 17.676 107.447 17.644 107.608 17.644 Z"/>
  <path d="M 125.396 17.078 C 125.557 17.379 125.695 17.701 125.81 18.047 C 125.88 17.877 125.949 17.709 126.016 17.541 C 126.087 17.372 126.162 17.216 126.249 17.068 L 135.207 1.241 C 135.291 1.098 135.375 1.009 135.46 0.977 C 135.546 0.947 135.662 0.932 135.817 0.932 L 136.956 0.932 L 136.956 23.714 L 135.507 23.714 L 135.507 4.303 C 135.507 4.017 135.52 3.725 135.553 3.416 L 126.592 19.334 C 126.437 19.618 126.223 19.76 125.949 19.76 L 125.685 19.76 C 125.413 19.76 125.2 19.618 125.039 19.334 L 115.827 3.392 C 115.867 3.708 115.885 4.011 115.885 4.303 L 115.885 23.714 L 114.447 23.714 L 114.447 0.932 L 115.574 0.932 C 115.726 0.932 115.851 0.947 115.942 0.977 C 116.027 1.009 116.113 1.098 116.206 1.241 L 125.396 17.078 Z M 143.717 0.932 L 157.371 0.932 L 157.371 2.301 L 145.375 2.301 L 145.375 11.512 L 155.359 11.512 L 155.359 12.847 L 145.375 12.847 L 145.375 22.348 L 157.371 22.348 L 157.371 23.714 L 143.717 23.714 L 143.717 0.932 Z M 181.923 12.317 C 181.923 14.074 181.662 15.657 181.142 17.068 C 180.613 18.472 179.871 19.666 178.921 20.657 C 177.961 21.647 176.816 22.401 175.482 22.922 C 174.155 23.451 172.68 23.714 171.054 23.714 L 162.75 23.714 L 162.75 0.932 L 171.054 0.932 C 172.68 0.932 174.155 1.195 175.482 1.725 C 176.816 2.246 177.961 3.001 178.921 3.991 C 179.871 4.98 180.613 6.176 181.142 7.58 C 181.662 8.99 181.923 10.572 181.923 12.317 Z M 180.221 12.317 C 180.221 10.732 180.004 9.313 179.566 8.062 C 179.12 6.82 178.5 5.771 177.702 4.912 C 176.904 4.052 175.943 3.395 174.815 2.944 C 173.689 2.493 172.434 2.265 171.054 2.265 L 164.406 2.265 L 164.406 22.381 L 171.054 22.381 C 172.434 22.381 173.689 22.155 174.815 21.704 C 175.943 21.253 176.904 20.596 177.702 19.737 C 178.5 18.877 179.12 17.828 179.566 16.584 C 180.004 15.335 180.221 13.913 180.221 12.317 Z M 189.479 0.932 L 189.479 23.714 L 187.821 23.714 L 187.821 0.932 L 189.479 0.932 Z M 204.673 0.932 L 214 23.714 L 212.723 23.714 C 212.578 23.714 212.456 23.679 212.356 23.601 C 212.263 23.517 212.191 23.411 212.137 23.279 L 209.446 16.664 L 198.255 16.664 L 195.574 23.279 C 195.538 23.403 195.466 23.505 195.354 23.59 C 195.25 23.673 195.12 23.714 194.963 23.714 L 193.712 23.714 L 203.038 0.932 L 204.673 0.932 Z M 203.406 3.945 L 198.75 15.436 L 208.962 15.436 L 204.304 3.923 C 204.228 3.744 204.155 3.539 204.085 3.302 C 204.011 3.071 203.934 2.83 203.854 2.575 C 203.78 2.83 203.703 3.071 203.625 3.302 C 203.558 3.539 203.483 3.752 203.406 3.945 Z" style="fill: rgb(51, 51, 51); white-space: pre;"/>
</svg>