<?xml version="1.0" encoding="utf-8"?>
<svg viewBox="0 0 384 384" xmlns="http://www.w3.org/2000/svg" xmlns:bx="https://boxy-svg.com">
  <g transform="matrix(1.211181, 0, 0, 1.211181, 0, 95)" bx:origin="0.5 0.627129">
    <path d="M 0 0.741 L 53.352 0.741 L 53.352 13.092 L 34.463 13.092 L 34.463 67.862 L 18.887 67.862 L 18.887 13.092 L 0 13.092 L 0 0.741 Z M 88.91 0.741 L 114.9 67.862 L 102.82 67.862 C 101.471 67.862 100.357 67.545 99.482 66.914 C 98.611 66.285 98.001 65.476 97.665 64.497 L 93.707 52.8 L 68.179 52.8 L 64.224 64.497 C 63.918 65.359 63.315 66.136 62.422 66.824 C 61.532 67.517 60.444 67.862 59.155 67.862 L 46.986 67.862 L 72.977 0.741 L 88.91 0.741 Z M 77.943 23.919 L 71.774 42.205 L 90.112 42.205 L 83.932 23.813 C 83.539 22.654 83.074 21.28 82.538 19.694 C 81.999 18.116 81.465 16.405 80.939 14.562 C 80.453 16.43 79.946 18.167 79.428 19.77 C 78.897 21.367 78.405 22.749 77.943 23.919 Z M 162.662 50.496 C 163.038 50.496 163.411 50.563 163.774 50.701 C 164.143 50.837 164.497 51.075 164.838 51.419 L 171.006 57.905 C 168.303 61.438 164.914 64.102 160.846 65.903 C 156.777 67.703 151.965 68.605 146.409 68.605 C 141.309 68.605 136.74 67.734 132.705 65.994 C 128.662 64.261 125.236 61.868 122.428 58.814 C 119.614 55.753 117.456 52.126 115.954 47.936 C 114.453 43.749 113.701 39.197 113.701 34.284 C 113.701 29.274 114.559 24.671 116.273 20.474 C 117.998 16.286 120.404 12.672 123.492 9.636 C 126.572 6.589 130.261 4.224 134.561 2.535 C 138.86 0.846 143.607 0 148.803 0 C 151.323 0 153.692 0.221 155.919 0.663 C 158.147 1.117 160.229 1.732 162.162 2.508 C 164.101 3.293 165.879 4.233 167.5 5.324 C 169.13 6.415 170.575 7.622 171.838 8.946 L 166.579 15.984 C 166.246 16.417 165.847 16.81 165.388 17.163 C 164.929 17.519 164.284 17.697 163.454 17.697 C 162.902 17.697 162.378 17.576 161.883 17.327 C 161.395 17.077 160.876 16.781 160.321 16.43 C 159.767 16.073 159.162 15.689 158.503 15.28 C 157.838 14.86 157.053 14.478 156.15 14.127 C 155.247 13.769 154.186 13.465 152.976 13.217 C 151.758 12.98 150.334 12.86 148.714 12.86 C 145.884 12.86 143.301 13.36 140.97 14.357 C 138.636 15.357 136.631 16.781 134.959 18.634 C 133.287 20.49 131.983 22.743 131.041 25.388 C 130.103 28.024 129.634 30.988 129.634 34.284 C 129.634 37.722 130.103 40.775 131.041 43.445 C 131.983 46.115 133.257 48.364 134.868 50.189 C 136.48 52.021 138.363 53.415 140.509 54.363 C 142.661 55.316 144.963 55.793 147.423 55.793 C 148.83 55.793 150.117 55.729 151.286 55.589 C 152.456 55.445 153.539 55.207 154.538 54.873 C 155.534 54.531 156.487 54.09 157.39 53.555 C 158.297 53.018 159.207 52.352 160.13 51.556 C 160.503 51.252 160.904 50.995 161.332 50.792 C 161.759 50.595 162.202 50.496 162.662 50.496 Z M 173.494 0.741 L 226.845 0.741 L 226.845 13.092 L 207.955 13.092 L 207.955 67.862 L 192.383 67.862 L 192.383 13.092 L 173.494 13.092 L 173.494 0.741 Z M 250.336 0.741 L 250.336 67.862 L 234.671 67.862 L 234.671 0.741 L 250.336 0.741 Z M 307.869 50.496 C 308.246 50.496 308.619 50.563 308.983 50.701 C 309.351 50.837 309.704 51.075 310.048 51.419 L 316.217 57.905 C 313.511 61.438 310.124 64.102 306.055 65.903 C 301.984 67.703 297.173 68.605 291.617 68.605 C 286.516 68.605 281.949 67.734 277.913 65.994 C 273.869 64.261 270.445 61.868 267.636 58.814 C 264.823 55.753 262.663 52.126 261.163 47.936 C 259.661 43.749 258.909 39.197 258.909 34.284 C 258.909 29.274 259.767 24.671 261.484 20.474 C 263.205 16.286 265.612 12.672 268.7 9.636 C 271.779 6.589 275.467 4.224 279.768 2.535 C 284.069 0.846 288.816 0 294.009 0 C 296.53 0 298.901 0.221 301.126 0.663 C 303.354 1.117 305.437 1.732 307.372 2.508 C 309.308 3.293 311.09 4.233 312.708 5.324 C 314.337 6.415 315.783 7.622 317.046 8.946 L 311.786 15.984 C 311.453 16.417 311.055 16.81 310.596 17.163 C 310.137 17.519 309.493 17.697 308.663 17.697 C 308.109 17.697 307.586 17.576 307.091 17.327 C 306.605 17.077 306.086 16.781 305.528 16.43 C 304.975 16.073 304.371 15.689 303.711 15.28 C 303.046 14.86 302.262 14.478 301.357 14.127 C 300.455 13.769 299.395 13.465 298.182 13.217 C 296.963 12.98 295.543 12.86 293.922 12.86 C 291.091 12.86 288.508 13.36 286.179 14.357 C 283.843 15.357 281.838 16.781 280.166 18.634 C 278.494 20.49 277.189 22.743 276.248 25.388 C 275.31 28.024 274.844 30.988 274.844 34.284 C 274.844 37.722 275.31 40.775 276.248 43.445 C 277.189 46.115 278.464 48.364 280.076 50.189 C 281.688 52.021 283.571 53.415 285.717 54.363 C 287.869 55.316 290.17 55.793 292.631 55.793 C 294.037 55.793 295.326 55.729 296.493 55.589 C 297.665 55.445 298.747 55.207 299.747 54.873 C 300.74 54.531 301.694 54.09 302.599 53.555 C 303.505 53.018 304.415 52.352 305.338 51.556 C 305.712 51.252 306.114 50.995 306.54 50.792 C 306.967 50.595 307.411 50.496 307.869 50.496 Z" style="fill: rgb(51, 51, 51); white-space: pre;" bx:origin="0 0"/>
    <path d="M 51.85 141.023 C 52.312 141.884 52.713 142.804 53.052 143.786 C 53.231 143.29 53.425 142.804 53.629 142.327 C 53.826 141.857 54.049 141.406 54.294 140.969 L 79.901 95.682 C 80.148 95.288 80.396 95.046 80.643 94.954 C 80.89 94.86 81.227 94.812 81.654 94.812 L 84.931 94.812 L 84.931 160 L 80.784 160 L 80.784 104.435 C 80.784 103.644 80.83 102.798 80.925 101.903 L 55.257 147.47 C 54.828 148.263 54.215 148.662 53.412 148.662 L 52.684 148.662 C 51.915 148.662 51.299 148.263 50.839 147.47 L 24.489 101.862 C 24.575 102.749 24.618 103.607 24.618 104.435 L 24.618 160 L 20.525 160 L 20.525 94.812 L 23.749 94.812 C 24.173 94.812 24.522 94.86 24.785 94.954 C 25.048 95.046 25.3 95.288 25.537 95.682 L 51.85 141.023 Z M 104.275 94.812 L 143.346 94.812 L 143.346 98.729 L 109.024 98.729 L 109.024 125.076 L 137.585 125.076 L 137.585 128.901 L 109.024 128.901 L 109.024 156.084 L 143.346 156.084 L 143.346 160 L 104.275 160 L 104.275 94.812 Z M 213.601 127.381 C 213.601 132.422 212.847 136.953 211.337 140.969 C 209.836 144.997 207.715 148.422 204.977 151.247 C 202.248 154.071 198.977 156.238 195.175 157.747 C 191.36 159.25 187.137 160 182.504 160 L 158.728 160 L 158.728 94.812 L 182.504 94.812 C 187.137 94.812 191.36 95.565 195.175 97.064 C 198.977 98.575 202.248 100.74 204.977 103.567 C 207.715 106.388 209.836 109.814 211.337 113.84 C 212.847 117.859 213.601 122.373 213.601 127.381 Z M 208.715 127.381 C 208.715 122.833 208.082 118.781 206.819 115.223 C 205.568 111.657 203.794 108.646 201.509 106.188 C 199.214 103.732 196.455 101.859 193.228 100.569 C 190.005 99.281 186.43 98.639 182.504 98.639 L 163.475 98.639 L 163.475 156.173 L 182.504 156.173 C 186.43 156.173 190.005 155.529 193.228 154.241 C 196.455 152.953 199.214 151.081 201.509 148.624 C 203.794 146.165 205.568 143.154 206.819 139.591 C 208.082 136.03 208.715 131.963 208.715 127.381 Z M 235.203 94.812 L 235.203 160 L 230.458 160 L 230.458 94.812 L 235.203 94.812 Z M 278.698 94.812 L 305.364 160 L 301.731 160 C 301.295 160 300.943 159.886 300.668 159.653 C 300.388 159.425 300.17 159.126 300.016 158.757 L 292.323 139.819 L 260.306 139.819 L 252.667 158.757 C 252.54 159.092 252.321 159.381 252.016 159.627 C 251.708 159.875 251.343 160 250.914 160 L 247.316 160 L 273.987 94.812 L 278.698 94.812 Z M 275.048 103.425 L 261.74 136.325 L 290.945 136.325 L 277.632 103.385 C 277.421 102.859 277.202 102.262 276.981 101.607 C 276.769 100.951 276.556 100.25 276.34 99.508 C 276.13 100.25 275.915 100.951 275.701 101.607 C 275.482 102.262 275.264 102.871 275.048 103.425 Z" style="fill: rgb(51, 51, 51); white-space: pre;" bx:origin="-0.072058 -1.454439"/>
  </g>
</svg>