<?xml version="1.0" ?><svg height="512" id="svg3017" version="1.0" width="512" xmlns="http://www.w3.org/2000/svg" xmlns:cc="http://creativecommons.org/ns#" xmlns:dc="http://purl.org/dc/elements/1.1/" xmlns:inkscape="http://www.inkscape.org/namespaces/inkscape" xmlns:rdf="http://www.w3.org/1999/02/22-rdf-syntax-ns#" xmlns:sodipodi="http://sodipodi.sourceforge.net/DTD/sodipodi-0.dtd" xmlns:svg="http://www.w3.org/2000/svg"><defs id="defs3019"/><g id="g5001" style="fill:#ffffff;fill-opacity:1" transform="matrix(1.1385451,-1.1385451,1.1385451,1.1385451,3312.633,4727.2139)"><path d="m 621.22036,-3452.3786 -3.375,0.03 c -1.485,0.03 -2.964,0.08 -4.438,0.156 0.147,8.98 0.641,73.502 -14.843,102.125 -4.445,8.081 -11.885,15.166 -20.313,20.313 -29.952,16.202 -99.528,14.923 -103.25,14.843 -0.181,2.98 -0.25,5.976 -0.25,9 0,2.624 0.08,5.223 0.219,7.813 0.526,-0.01 0.486,-0.02 1.375,-0.03 14.422,-0.12 73.792,0.309 100.719,14.876 8.081,4.444 15.166,11.884 20.312,20.312 16.202,29.952 14.923,99.528 14.844,103.25 2.978,0.181 5.977,0.281 9,0.281 2.623,0 5.223,-0.08 7.812,-0.219 -0.146,-8.979 -0.64,-73.501 14.844,-102.124 4.445,-8.082 11.885,-15.167 20.313,-20.313 25.003,-13.526 77.981,-14.85 96.968,-14.875 3.528,0 5.463,0.05 6.25,0.06 0.182,-2.988 0.313,-5.997 0.313,-9.031 0,-2.623 -0.114,-5.223 -0.25,-7.812 -9.116,0.147 -73.508,0.62 -102.094,-14.844 -8.081,-4.445 -15.166,-11.885 -20.312,-20.313 -16.182,-29.914 -14.927,-99.336 -14.844,-103.218 -2.978,-0.181 -5.977,-0.281 -9,-0.282 z" id="path4123" style="fill:#FFFFFF;fill-opacity:1;stroke:none"/><path d="m -5975,27422.875 c 9.9239,0 17.9688,8.045 17.9688,17.969 -10e-5,9.924 -8.0449,17.969 -17.9688,17.968 -9.9239,0 -17.9688,-8.044 -17.9687,-17.968 0,-9.763 7.795,-17.74 17.5551,-17.964" id="path4125" style="fill:#FFFFFF;fill-opacity:1;stroke:none" transform="translate(6597.0323,-30903.753)"/><path d="m -5975,27422.875 c 9.9239,0 17.9688,8.045 17.9688,17.969 -10e-5,9.924 -8.0449,17.969 -17.9688,17.968 -9.9239,0 -17.9688,-8.044 -17.9687,-17.968 0,-9.763 7.795,-17.74 17.5551,-17.964" id="path4127" style="fill:#FFFFFF;fill-opacity:1;stroke:none" transform="matrix(0,-1,1,0,-26976.622,-9281.7168)"/><path d="m -5975,27422.875 c 9.9239,0 17.9688,8.045 17.9688,17.969 -10e-5,9.924 -8.0449,17.969 -17.9688,17.968 -9.9239,0 -17.9688,-8.044 -17.9687,-17.968 0,-9.763 7.795,-17.74 17.5551,-17.964" id="path4129" style="fill:#FFFFFF;fill-opacity:1;stroke:none" transform="matrix(-1,0,0,-1,-5354.5866,24291.94)"/><path d="m -5975,27422.875 c 9.9239,0 17.9688,8.045 17.9688,17.969 -10e-5,9.924 -8.0449,17.969 -17.9688,17.968 -9.9239,0 -17.9688,-8.044 -17.9687,-17.968 0,-9.763 7.795,-17.74 17.5551,-17.964" id="path4131" style="fill:#FFFFFF;fill-opacity:1;stroke:none" transform="matrix(0,1,-1,0,28219.071,2669.9033)"/><g id="g4979" style="fill:#FFFFFF;fill-opacity:1" transform="matrix(0.82602452,0,0,0.82602452,135.39233,-575.00604)"><path d="m 769.775,-3251.6583 c 1.919,17.2599 10.611,34.8641 15.594,17.281 1.898,-6.9582 3.086,-22.5318 -1.25,-43 -1.683,-7.9445 -1.862,-14.221 -1.531,-19.156 -3.491,-0.331 -6.712,-1.445 -9.375,-3.156 -2.993,15.924 -4.661,31.965 -3.438,48.031 z" id="path4155" style="fill:#FFFFFF;fill-opacity:1"/><path d="m 786.678,-3358.5379 c -1.919,-17.26 -10.611,-34.864 -15.594,-17.281 -1.898,6.958 -3.086,22.532 1.25,43 1.683,7.944 1.862,14.221 1.531,19.156 3.491,0.331 6.712,1.445 9.375,3.156 2.993,-15.924 4.661,-31.965 3.438,-48.031 z" id="path4157" style="fill:#FFFFFF;fill-opacity:1"/></g><g id="g4983" style="fill:#FFFFFF;fill-opacity:1" transform="matrix(0,-0.82602452,0.82602452,0,3350.5055,-2506.0696)"><path d="m 769.775,-3251.6583 c 1.919,17.2599 10.611,34.8641 15.594,17.281 1.898,-6.9582 3.086,-22.5318 -1.25,-43 -1.683,-7.9445 -1.862,-14.221 -1.531,-19.156 -3.491,-0.331 -6.712,-1.445 -9.375,-3.156 -2.993,15.924 -4.661,31.965 -3.438,48.031 z" id="path4985" style="fill:#FFFFFF;fill-opacity:1"/><path d="m 786.678,-3358.5379 c -1.919,-17.26 -10.611,-34.864 -15.594,-17.281 -1.898,6.958 -3.086,22.532 1.25,43 1.683,7.944 1.862,14.221 1.531,19.156 3.491,0.331 6.712,1.445 9.375,3.156 2.993,-15.924 4.661,-31.965 3.438,-48.031 z" id="path4987" style="fill:#FFFFFF;fill-opacity:1"/></g><g id="g4989" style="fill:#FFFFFF;fill-opacity:1" transform="matrix(0.82602452,0,0,0.82602452,-178.61242,-576.62474)"><path d="m 769.775,-3251.6583 c 1.919,17.2599 10.611,34.8641 15.594,17.281 1.898,-6.9582 3.086,-22.5318 -1.25,-43 -1.683,-7.9445 -1.862,-14.221 -1.531,-19.156 -3.491,-0.331 -6.712,-1.445 -9.375,-3.156 -2.993,15.924 -4.661,31.965 -3.438,48.031 z" id="path4991" style="fill:#FFFFFF;fill-opacity:1"/><path d="m 786.678,-3358.5379 c -1.919,-17.26 -10.611,-34.864 -15.594,-17.281 -1.898,6.958 -3.086,22.532 1.25,43 1.683,7.944 1.862,14.221 1.531,19.156 3.491,0.331 6.712,1.445 9.375,3.156 2.993,-15.924 4.661,-31.965 3.438,-48.031 z" id="path4993" style="fill:#FFFFFF;fill-opacity:1"/></g><g id="g4995" style="fill:#FFFFFF;fill-opacity:1" transform="matrix(0,-0.82602452,0.82602452,0,3352.1244,-2820.0751)"><path d="m 769.775,-3251.6583 c 1.919,17.2599 10.611,34.8641 15.594,17.281 1.898,-6.9582 3.086,-22.5318 -1.25,-43 -1.683,-7.9445 -1.862,-14.221 -1.531,-19.156 -3.491,-0.331 -6.712,-1.445 -9.375,-3.156 -2.993,15.924 -4.661,31.965 -3.438,48.031 z" id="path4997" style="fill:#FFFFFF;fill-opacity:1"/><path d="m 786.678,-3358.5379 c -1.919,-17.26 -10.611,-34.864 -15.594,-17.281 -1.898,6.958 -3.086,22.532 1.25,43 1.683,7.944 1.862,14.221 1.531,19.156 3.491,0.331 6.712,1.445 9.375,3.156 2.993,-15.924 4.661,-31.965 3.438,-48.031 z" id="path4999" style="fill:#FFFFFF;fill-opacity:1"/></g></g></svg>
