<?xml version="1.0" standalone="no"?>
<!DOCTYPE svg PUBLIC "-//W3C//DTD SVG 20010904//EN"
 "http://www.w3.org/TR/2001/REC-SVG-20010904/DTD/svg10.dtd">
<svg version="1.0" xmlns="http://www.w3.org/2000/svg"
 width="1653.000000pt" height="1246.000000pt" viewBox="0 0 1653.000000 1246.000000"
 preserveAspectRatio="xMidYMid meet">
<g transform="translate(0.000000,1246.000000) scale(0.100000,-0.100000)"
fill="#ffffff" stroke="none">
<path d="M7815 11879 c-1577 -99 -3057 -677 -4280 -1670 -375 -305 -811 -742
-1111 -1114 -912 -1132 -1473 -2487 -1623 -3920 -34 -324 -44 -566 -38 -915 7
-366 15 -484 57 -822 119 -951 425 -1879 896 -2718 l79 -140 83 0 84 0 -20 32
c-186 310 -380 702 -521 1055 -722 1811 -691 3855 86 5643 513 1179 1325 2202
2368 2983 707 530 1526 935 2380 1177 1195 338 2462 369 3674 89 1798 -417
3383 -1506 4433 -3049 713 -1047 1135 -2248 1244 -3542 33 -385 24 -956 -21
-1389 -106 -1018 -451 -2045 -995 -2961 l-22 -38 84 0 83 0 80 143 c481 858
798 1834 904 2783 41 364 46 464 46 889 0 437 -10 596 -56 955 -210 1637 -962
3161 -2140 4339 -1232 1232 -2829 1991 -4554 2165 -347 35 -867 46 -1200 25z"/>
<path d="M7930 10573 c-910 -63 -1635 -255 -2405 -633 -771 -380 -1438 -906
-2031 -1605 -91 -107 -298 -386 -396 -535 -607 -919 -944 -1927 -1019 -3050
-14 -216 -6 -722 16 -940 103 -1046 449 -2016 1022 -2867 111 -165 250 -352
266 -359 7 -2 111 -3 231 -2 l218 3 -67 80 c-912 1090 -1403 2548 -1335 3965
63 1323 517 2490 1364 3510 135 163 499 533 651 662 445 378 860 647 1350 876
517 241 1067 406 1623 487 535 78 1145 79 1667 4 1103 -158 2096 -606 2965
-1337 167 -141 540 -515 674 -677 421 -506 728 -1015 962 -1593 573 -1417 558
-3043 -42 -4455 -203 -478 -479 -941 -803 -1347 -64 -79 -122 -153 -129 -162
-12 -17 -2 -18 215 -18 l228 1 90 122 c693 942 1090 1994 1197 3177 17 190 17
818 0 1005 -71 777 -248 1443 -563 2120 -417 898 -1079 1714 -1878 2318 -979
741 -2098 1158 -3341 1247 -130 9 -616 11 -730 3z"/>
<path d="M7905 9259 c-933 -72 -1823 -406 -2568 -965 -352 -265 -717 -629
-979 -979 -536 -714 -851 -1516 -955 -2430 -25 -226 -25 -761 0 -995 139
-1269 731 -2396 1691 -3217 l109 -93 503 0 c277 0 504 2 504 4 0 2 -39 26 -87
52 -549 307 -1087 811 -1448 1354 -382 575 -602 1162 -697 1858 -20 148 -23
209 -23 537 0 329 3 388 23 535 80 590 261 1129 542 1615 617 1070 1675 1836
2874 2080 298 60 447 76 782 82 318 6 458 -2 709 -38 1800 -259 3256 -1638
3614 -3424 65 -321 76 -443 76 -850 0 -328 -3 -389 -23 -535 -131 -961 -530
-1789 -1192 -2473 -262 -271 -557 -503 -905 -712 -71 -43 -132 -79 -134 -81
-2 -2 223 -4 501 -4 l505 0 114 96 c150 128 429 409 554 559 422 505 712 1023
913 1630 283 854 319 1811 101 2690 -220 888 -681 1689 -1340 2330 -835 811
-1901 1290 -3064 1375 -162 12 -540 11 -700 -1z"/>
<path d="M7933 7554 c-556 -60 -1068 -254 -1513 -572 -1069 -763 -1560 -2085
-1249 -3362 178 -727 623 -1383 1239 -1825 404 -289 877 -483 1365 -559 268
-41 651 -46 904 -11 696 96 1315 398 1814 884 254 247 451 518 617 846 215
424 323 851 337 1336 9 314 -18 567 -91 864 -301 1217 -1305 2154 -2539 2369
-259 46 -631 58 -884 30z"/>
</g>
</svg>
